<?xml version="1.0" encoding="UTF-8"?>
<svg xmlns="http://www.w3.org/2000/svg" xmlns:xlink="http://www.w3.org/1999/xlink" viewBox="0 0 1000 1000">
  <defs>
    <style>
      .cls-1 {
        fill: url(#GradientFill_1);
      }

      .cls-1, .cls-2, .cls-3 {
        fill-rule: evenodd;
      }

      .cls-4 {
        fill: #2d2d2d;
      }

      .cls-2 {
        fill: #bda788;
      }

      .cls-3, .cls-5 {
        fill: #f4f1e6;
      }
    </style>
    <linearGradient id="GradientFill_1" data-name="GradientFill 1" x1="500" y1="329.35" x2="500" y2="452.86" gradientUnits="userSpaceOnUse">
      <stop offset="0" stop-color="#8e7028"/>
      <stop offset="0" stop-color="#8e7028"/>
      <stop offset=".17" stop-color="#ab9051"/>
      <stop offset=".48" stop-color="#f2ea9c"/>
      <stop offset=".78" stop-color="#ab9051"/>
      <stop offset="1" stop-color="#8e7028"/>
    </linearGradient>
  </defs>
  <rect class="cls-4" width="1000" height="1000"/>
  <g id="PRINCIPAL">
    <g>
      <path class="cls-1" d="M508.49,399.34c.2,4.58,7.3,16.61,11.48,23.84,2.76,4.78,4.15,9.01,3.42,11.28-.88,2.8-4.53,4.42-7.62,3.29l-1.58-.58c-.19.36-.39.71-.59,1.06l1.79.65c.95.35,2.84.92,3.78.92,3.33.07,6.78-.95,8.18-4.12.52-1.2,1.65-4.59-.3-9.32-1.04-2.54-5.2-9.61-7.94-14.45-2.38-4.2-5.34-10.05-5.59-13.11-.28-3.48,1.8-7.76,5.77-10.33,3.18-2.06,6.53-3.42,11.8-1.49,4.57,1.67,8.94,5.91,9.64,12.07.54,4.79-1.07,8.39-3.3,13.68l.42.15,6.01-5.32c1.32-8.93-2.57-18.11-12.28-21.67-4.99-1.83-11.24-1.3-15.76,1.48-4.2,2.62-7.54,6.52-7.31,11.97h0ZM503.13,412.1c5.45.21,9.06,3.86,11.34,8.26,2.41,4.73,2.42,11.01.2,15.83-4.33,9.4-13.8,12.53-22.59,10.49l-4.81-6.42.19-.41c5.09,2.65,8.55,4.55,13.36,4.4,6.2-.19,10.77-4.21,12.81-8.63,2.35-5.1,1.27-8.55-.53-11.89-2.25-4.16-6.34-6.59-9.83-6.59-3.07,0-9.14,2.48-13.52,4.51-5.04,2.34-12.43,5.91-15.04,6.75-4.87,1.56-8.17.16-9.32-.46-3.05-1.65-3.79-5.16-3.44-8.48.08-.93.8-2.77,1.22-3.69l.11-.23c.32.24.65.47.99.7h0c-1.38,3-.06,6.76,2.66,7.87,2.2.91,6.53-.13,11.52-2.49,7.54-3.57,20.1-9.68,24.69-9.51h0ZM491.18,405.9c.09-4.59-6.25-17.03-9.96-24.51-2.45-4.94-3.58-9.25-2.7-11.47,1.06-2.74,4.8-4.13,7.81-2.8l.4.18c.23-.34.46-.68.7-1l-.65-.29c-.93-.41-2.78-1.09-3.71-1.16-3.32-.28-6.82.52-8.42,3.6-.6,1.16-1.94,4.48-.29,9.32.88,2.6,4.59,9.92,7.02,14.92,2.11,4.35,4.7,10.36,4.76,13.43.06,3.49-2.29,7.63-6.41,9.95-3.3,1.85-6.73,3-11.87.74-4.45-1.96-8.55-6.46-8.86-12.65-.24-4.82,1.59-8.3,4.15-13.44l-.41-.18-6.33,4.93c-1.88,8.82,1.43,18.23,10.9,22.4,4.86,2.14,11.14,2.01,15.83-.49,4.35-2.35,7.94-6.04,8.05-11.49h0ZM496.43,392.86c-5.18-.15-8.66-3.58-10.86-7.74-2.34-4.47-2.42-10.44-.35-15.05,4.03-8.98,13-12.06,21.38-10.2l4.64,6.06-.17.39c-4.87-2.47-8.17-4.24-12.75-4.05-5.89.25-10.2,4.11-12.1,8.34-2.18,4.87-1.12,8.15.62,11.3,2.18,3.94,6.1,6.2,9.42,6.17,2.92-.03,8.66-2.45,12.81-4.42,4.77-2.27,11.76-5.75,14.24-6.57,4.62-1.53,7.76-.23,8.86.34,2.91,1.54,3.65,4.87,3.36,8.03-.04.56-.32,1.45-.62,2.26-.37-.21-.74-.42-1.13-.61.4-2.51-.86-5.16-3.03-6.02-2.1-.85-6.21.19-10.93,2.49-7.13,3.47-19.02,9.41-23.38,9.29Z"/>
      <g>
        <polygon class="cls-3" points="369.94 631.02 369.94 640.57 368.97 640.57 368.97 632.93 365.21 639.35 364.74 639.35 360.99 632.97 360.99 640.57 360.02 640.57 360.02 631.02 360.85 631.02 365 638.1 369.1 631.02 369.94 631.02"/>
        <polygon class="cls-3" points="410.92 639.69 410.92 640.57 404.17 640.57 404.17 631.02 410.72 631.02 410.72 631.89 405.18 631.89 405.18 635.29 410.12 635.29 410.12 636.15 405.18 636.15 405.18 639.69 410.92 639.69"/>
        <polygon class="cls-3" points="452.4 631.02 452.4 640.57 451.57 640.57 445.43 632.82 445.43 640.57 444.42 640.57 444.42 631.02 445.25 631.02 451.4 638.76 451.4 631.02 452.4 631.02"/>
        <polygon class="cls-3" points="488.49 631.89 485.13 631.89 485.13 631.02 492.85 631.02 492.85 631.89 489.5 631.89 489.5 640.57 488.49 640.57 488.49 631.89"/>
        <path class="cls-3" d="M529.62,640.65c-.94,0-1.8-.22-2.56-.64-.78-.42-1.38-1-1.8-1.73-.44-.74-.66-1.57-.66-2.48s.22-1.75.66-2.48c.42-.74,1.02-1.32,1.8-1.75.76-.42,1.62-.63,2.56-.63s1.8.2,2.56.63c.75.42,1.35,1,1.79,1.73.44.75.65,1.58.65,2.5s-.22,1.75-.65,2.48c-.44.75-1.04,1.32-1.79,1.75-.76.42-1.62.63-2.56.63h0ZM529.62,639.75c.75,0,1.43-.18,2.05-.52.61-.34,1.09-.8,1.43-1.42.34-.6.52-1.27.52-2.02s-.18-1.42-.52-2.03c-.34-.6-.82-1.08-1.43-1.42-.61-.34-1.3-.5-2.05-.5s-1.43.16-2.05.5c-.61.34-1.11.82-1.45,1.42-.35.61-.53,1.28-.53,2.03s.18,1.42.53,2.02c.34.61.83,1.08,1.45,1.42.61.34,1.3.52,2.05.52Z"/>
        <path class="cls-3" d="M574.54,640.57l-2.18-3.07c-.25.03-.5.04-.76.04h-2.56v3.03h-1.01v-9.55h3.57c1.21,0,2.17.29,2.86.87.7.59,1.04,1.38,1.04,2.4,0,.75-.19,1.38-.56,1.88-.38.52-.93.89-1.62,1.12l2.33,3.27h-1.11ZM571.56,636.68c.94,0,1.66-.2,2.17-.63.5-.42.75-1.01.75-1.76s-.25-1.36-.75-1.79c-.5-.41-1.23-.61-2.17-.61h-2.54v4.79h2.54Z"/>
        <rect class="cls-5" x="609" y="631.02" width="1.01" height="9.55"/>
        <path class="cls-3" d="M650.24,638.02h-5.32l-1.15,2.55h-1.05l4.37-9.55h1l4.36,9.55h-1.06l-1.15-2.55h0ZM649.87,637.2l-2.29-5.13-2.29,5.13h4.58Z"/>
      </g>
      <path class="cls-2" d="M422.62,536.35h18.75c3.68-.28,6.87-1.29,9.58-3.05,2.71-1.76,4.66-3.86,5.86-6.31,1.19-2.45,1.75-5.08,1.65-7.9-.09-2.82-.8-5.39-2.14-7.7-1.33-2.31-3.47-4.25-6.41-5.82-2.94-1.57-6.39-2.36-10.34-2.36h-19.57v33.14h2.62ZM392.14,546.21v-38.1c.09-1.39-.5-2.75-1.79-4.1-1.29-1.34-2.76-2.15-4.41-2.43h13.92c-1.65.28-3.1,1.09-4.34,2.43-1.24,1.34-1.86,2.71-1.86,4.1v36.65c-.52.47-1.02.95-1.52,1.45h0ZM420.01,538.02v60.73h-13.37c1.56-.28,2.99-1.09,4.27-2.43,1.29-1.34,1.93-2.7,1.93-4.09v-53.94c-3.03.56-5.93,1.53-8.68,2.91-5.97,2.77-10.84,6.98-14.61,12.62-3.77,5.82-5.7,12.2-5.79,19.13-.18,6.19,1.15,12.06,4,17.61s6.8,10.03,11.85,13.45c5.33,3.51,11.26,5.36,17.78,5.55,8.27.09,15.07-2.45,20.4-7.63,3.68-3.6,5.88-7.74,6.62-12.41.74-4.67-.12-9.24-2.55-13.73-2.43-4.48-6.18-8.11-11.23-10.88l10.06-.97c3.95,4.53,6.18,9.91,6.68,16.15.5,6.24-.85,11.99-4.07,17.26,4.59-.09,8.8-.81,12.61-2.15,3.81-1.34,6.96-3.17,9.44-5.48,2.48-2.31,4.57-4.95,6.27-7.9,1.7-2.96,2.76-6.08,3.17-9.36.41-3.28.44-6.56.07-9.84-.37-3.28-1.4-6.4-3.1-9.36-1.7-2.96-3.77-5.57-6.2-7.83-2.44-2.26-5.56-4.07-9.37-5.41-3.81-1.34-7.97-2.01-12.47-2.01h-23.71ZM412.84,508.34c0-1.48-.64-2.89-1.93-4.23-1.29-1.34-2.71-2.15-4.27-2.43h35.29c4.5,0,8.48.72,11.92,2.15,3.45,1.43,6.09,3.26,7.93,5.48,1.84,2.22,3.01,4.69,3.51,7.42.51,2.73.34,5.38-.48,7.97-.83,2.59-2.44,4.97-4.82,7.14-2.39,2.17-5.33,3.77-8.82,4.78,5.24.55,9.95,1.87,14.13,3.95,4.18,2.08,7.53,4.6,10.06,7.56,2.53,2.96,4.41,6.29,5.65,9.98,1.24,3.7,1.75,7.42,1.52,11.16s-1.19,7.39-2.89,10.95c-1.7,3.56-4.02,6.7-6.96,9.43-2.94,2.73-6.73,4.92-11.37,6.59-4.64,1.66-9.81,2.5-15.51,2.5h-3.45c-1.01,1.48-2.16,2.87-3.45,4.16-5.61,5.55-12.77,8.23-21.5,8.04-6.8-.09-13-2.03-18.61-5.82-5.24-3.51-9.33-8.13-12.27-13.86-2.94-5.82-4.36-11.97-4.27-18.44.18-7.21,2.25-13.82,6.2-19.83,3.86-5.82,8.91-10.21,15.16-13.17,2.94-1.39,6.02-2.36,9.23-2.91v-28.56h0ZM313.71,562.89c-3.12-7.49-22.23-23.13-33.55-32.6-7.49-6.25-12.37-12.44-12.53-16.65-.23-5.18,4.84-10.09,10.65-10.09h7.46c10.97,0,15.25,8.69,16.97,20.51h.77v-22.62h-25.25c-1.79,0-5.28.21-6.84.77-5.58,1.91-10.67,5.7-11.07,11.81-.14,2.3.05,8.63,6.16,15.3,3.28,3.58,14.49,12.79,21.97,19.16,6.51,5.53,14.97,13.44,17.25,18.37,2.58,5.6,1.72,13.97-3.3,20.67-4.02,5.35-8.77,9.65-18.69,9.65-8.6,0-18.44-4.37-23.34-14.18-3.81-7.63-3.33-14.58-2.84-24.72h-.79l-6.74,12.49c3.23,15.63,15.28,28.51,33.57,28.51,9.39,0,19.46-4.67,25.27-12.04,5.37-6.91,8.56-15.42,4.86-24.32h0ZM386.54,583.77c1.14-1.74,2.13-3.67,2.98-5.79,1.75-4.35,2.62-9.21,2.62-14.58v-10.82c.49-.64.99-1.26,1.52-1.85v12.67c0,5.83-1.01,11.11-3.03,15.83-1.01,2.35-2.17,4.48-3.49,6.38-.21-.61-.41-1.22-.59-1.84h0ZM329.98,508.11v55.28c0,5.56.9,10.56,2.69,15,1.79,4.44,4.14,8.01,7.03,10.7,2.89,2.69,6.23,4.75,9.99,6.18,3.77,1.44,7.58,2.13,11.44,2.08,3.86-.05,7.65-.83,11.37-2.36s7.05-3.66,9.99-6.39c.31-.29.62-.59.92-.9.21.54.42,1.08.65,1.62-.46.47-.94.93-1.43,1.36-3.31,2.92-7.1,5.14-11.37,6.67-4.27,1.53-8.61,2.29-13.03,2.29s-8.75-.76-13.03-2.29c-4.27-1.53-8.06-3.75-11.37-6.67-3.31-2.92-5.97-6.74-7.99-11.46-2.02-4.72-3.03-10-3.03-15.83v-55.28c0-1.39-.62-2.75-1.86-4.1-1.24-1.34-2.69-2.15-4.34-2.43h19.57c-1.65.28-3.1,1.09-4.34,2.43-1.24,1.34-1.86,2.71-1.86,4.1h0ZM750,585.57l-.55,13.25h-59.82c1.65-.28,3.1-1.07,4.34-2.37,1.24-1.3,1.86-2.7,1.86-4.18v-16.59c-4.87-.84-9.37-2.6-13.51-5.3-5.24-3.53-9.33-8.23-12.27-14.08-2.94-5.86-4.36-12.04-4.27-18.55.09-7.16,2.16-13.8,6.2-19.94,4.23-6.51,9.14-10.9,14.75-13.18,5.61-2.28,12.64-3.42,21.09-3.42h41.63v.7l.55,12.55c-.55-2.33-1.84-4.88-3.86-7.67-2.02-2.79-4.23-4.18-6.62-4.18h-31.7c-8.18,0-14.93,1.05-20.26,3.14-5.33,2.09-10.15,6.39-14.47,12.9-3.77,5.86-5.74,12.27-5.93,19.24-.09,6.23,1.29,12.13,4.14,17.71,2.94,5.67,6.89,10.18,11.85,13.53,3.86,2.6,8.09,4.28,12.68,5.02v-57.73c0-1.49-.62-2.88-1.86-4.18-1.24-1.3-2.69-2.14-4.34-2.51h13.37v64.98c7.44-.37,13.6-2.93,18.47-7.67,3.58-3.63,5.74-7.79,6.48-12.48.74-4.69-.11-9.3-2.55-13.8-2.43-4.51-6.18-8.16-11.23-10.95l10.06-.98c4.87,5.39,7.14,11.95,6.82,19.66-.32,7.72-3.19,14.22-8.61,19.52-5.15,5.11-11.62,7.81-19.44,8.09v21.33h36.53c2.39,0,4.59-1.39,6.62-4.18,2.02-2.79,3.31-5.35,3.86-7.67h0ZM497.99,508.81v88.63h36.53c2.39,0,4.62-1.38,6.68-4.13,2.07-2.76,3.38-5.28,3.93-7.58l-.69,13.09h-59.82c1.65-.28,3.1-1.08,4.34-2.41,1.24-1.33,1.86-2.73,1.86-4.2v-83.39c0-1.38-.62-2.73-1.86-4.07-1.24-1.33-2.69-2.14-4.34-2.41h19.57c-1.56.28-2.99,1.08-4.27,2.41-1.29,1.33-1.93,2.69-1.93,4.07h0ZM564.84,508.81v83.39c0,1.47.62,2.87,1.86,4.2,1.24,1.33,2.69,2.14,4.34,2.41h-19.57c1.65-.28,3.1-1.08,4.34-2.41,1.24-1.33,1.86-2.73,1.86-4.2v-83.39c0-1.38-.62-2.73-1.86-4.07-1.24-1.33-2.69-2.14-4.34-2.41h19.57c-1.56.28-2.99,1.08-4.27,2.41-1.29,1.33-1.93,2.69-1.93,4.07h0ZM586.94,502.51h-13.62c2.42.64,4.25,1.75,5.5,3.31,1.25,1.56,1.92,4.19,2,7.87v73.97c-.08,3.68-.75,6.33-2,7.94-1.25,1.61-3.08,2.69-5.5,3.24h16c-2.42-.55-4.25-1.63-5.5-3.24-1.25-1.61-1.92-4.25-2-7.94v-75.07l34.62,87.36,37.37-94.67v82.39c0,3.77-.63,6.44-1.88,8-1.25,1.56-3.08,2.62-5.5,3.17h23.25c-2.42-.55-4.25-1.61-5.5-3.17-1.25-1.56-1.92-4.23-2-8v-73.97c.08-3.68.75-6.3,2-7.87,1.25-1.56,3.08-2.67,5.5-3.31h-15.87l-33.37,84.6-33.5-84.6Z"/>
    </g>
  </g>
</svg>