<?xml version="1.0" encoding="UTF-8"?>
<svg xmlns="http://www.w3.org/2000/svg" xmlns:xlink="http://www.w3.org/1999/xlink" viewBox="0 0 1000 1000">
  <defs>
    <style>
      .cls-1 {
        fill: url(#GradientFill_1);
      }

      .cls-1, .cls-2, .cls-3 {
        fill-rule: evenodd;
      }

      .cls-4 {
        fill: #2d2d2d;
      }

      .cls-2 {
        fill: #bda788;
      }

      .cls-3 {
        fill: #f4f1e6;
      }
    </style>
    <linearGradient id="GradientFill_1" data-name="GradientFill 1" x1="500" y1="386.6" x2="500" y2="575.98" gradientUnits="userSpaceOnUse">
      <stop offset="0" stop-color="#8e7028"/>
      <stop offset="0" stop-color="#8e7028"/>
      <stop offset=".17" stop-color="#ab9051"/>
      <stop offset=".48" stop-color="#f2ea9c"/>
      <stop offset=".78" stop-color="#ab9051"/>
      <stop offset="1" stop-color="#8e7028"/>
    </linearGradient>
  </defs>
  <rect class="cls-4" width="1000" height="1000"/>
  <g id="CIRCULAR">
    <g>
      <path class="cls-1" d="M513.01,493.92c.3,7.03,11.2,25.47,17.6,36.55,4.23,7.33,6.36,13.82,5.24,17.29-1.36,4.29-6.95,6.77-11.68,5.04l-2.42-.89c-.29.56-.6,1.1-.91,1.62l2.74,1c1.46.53,4.36,1.4,5.79,1.41,5.11.11,10.39-1.45,12.54-6.32.8-1.83,2.54-7.04-.45-14.29-1.6-3.89-7.98-14.73-12.18-22.15-3.65-6.45-8.18-15.41-8.57-20.1-.43-5.33,2.77-11.89,8.85-15.85,4.87-3.15,10.02-5.24,18.1-2.28,7.01,2.57,13.71,9.06,14.78,18.51.83,7.35-1.64,12.86-5.06,20.97l.64.24,9.21-8.16c2.03-13.69-3.94-27.77-18.83-33.22-7.65-2.8-17.24-2-24.17,2.27-6.43,4.02-11.56,10-11.21,18.35h0ZM504.79,513.47c8.35.32,13.9,5.92,17.38,12.66,3.69,7.25,3.72,16.88.31,24.28-6.65,14.41-21.16,19.21-34.64,16.08l-7.38-9.84.29-.62c7.81,4.07,13.1,6.97,20.49,6.74,9.51-.3,16.52-6.46,19.65-13.23,3.61-7.82,1.94-13.12-.81-18.23-3.45-6.38-9.73-10.1-15.08-10.1-4.71,0-14.01,3.8-20.73,6.91-7.74,3.58-19.06,9.06-23.07,10.34-7.48,2.39-12.52.24-14.28-.7-4.67-2.53-5.81-7.92-5.28-13.01.13-1.43,1.23-4.25,1.88-5.66l.16-.36c.49.37,1,.73,1.53,1.07v.02c-2.12,4.58-.1,10.35,4.07,12.05,3.37,1.4,10.02-.2,17.66-3.82,11.56-5.48,30.83-14.85,37.85-14.58h0ZM486.48,503.98c.14-7.03-9.58-26.12-15.27-37.58-3.76-7.58-5.48-14.19-4.14-17.59,1.62-4.2,7.36-6.33,11.97-4.3l.62.27c.35-.53.71-1.04,1.08-1.53l-1-.44c-1.42-.62-4.26-1.67-5.7-1.77-5.1-.43-10.46.8-12.91,5.52-.91,1.78-2.97,6.86-.44,14.29,1.35,3.99,7.04,15.2,10.76,22.87,3.24,6.66,7.2,15.89,7.29,20.6.09,5.35-3.51,11.69-9.83,15.26-5.06,2.84-10.33,4.6-18.21,1.14-6.83-3-13.11-9.9-13.59-19.4-.37-7.38,2.44-12.73,6.37-20.61l-.63-.28-9.71,7.56c-2.88,13.53,2.19,27.96,16.71,34.34,7.46,3.28,17.08,3.08,24.27-.75,6.67-3.61,12.17-9.26,12.34-17.61h0ZM494.53,483.97c-7.95-.22-13.27-5.49-16.66-11.86-3.59-6.86-3.7-16.01-.54-23.08,6.17-13.77,19.93-18.48,32.78-15.65l7.12,9.29-.27.6c-7.46-3.79-12.53-6.5-19.55-6.2-9.04.38-15.64,6.31-18.55,12.78-3.35,7.47-1.71,12.49.95,17.32,3.34,6.04,9.35,9.51,14.44,9.46,4.48-.05,13.28-3.75,19.64-6.78,7.32-3.48,18.03-8.81,21.83-10.07,7.08-2.35,11.91-.36,13.59.52,4.47,2.36,5.6,7.47,5.15,12.31-.07.85-.49,2.23-.95,3.47-.56-.33-1.14-.64-1.74-.94.62-3.85-1.31-7.91-4.65-9.23-3.22-1.3-9.52.29-16.75,3.81-10.94,5.33-29.16,14.43-35.85,14.25Z"/>
      <path class="cls-3" d="M489.58,335.77l-4.75-8.78-3.37,9.4,8.13-.62h0ZM490.34,337.17l-9.43.72-1.69,4.68-1.86.14,6.45-17.52,1.77-.13,9.03,16.34-1.89.14-2.38-4.37h0ZM466.99,327.7l1.77-.31,2.98,16.71-1.77.32-2.98-16.71h0ZM454.3,341.1c1.62-.46,2.75-1.17,3.4-2.13.65-.96.8-2.08.43-3.37-.38-1.32-1.09-2.21-2.15-2.68-1.06-.46-2.39-.47-4.01,0l-4.34,1.23,2.33,8.19,4.34-1.23h0ZM461.27,346.31l-5.22-4.19c-.41.17-.84.31-1.29.44l-4.39,1.25,1.47,5.18-1.73.49-4.64-16.33,6.11-1.74c2.08-.59,3.86-.56,5.32.1,1.46.66,2.44,1.86,2.94,3.6.36,1.27.35,2.44-.05,3.51-.4,1.06-1.14,1.96-2.22,2.69l5.58,4.47-1.89.54h0ZM434.75,353.92c1.22-.55,2.2-1.33,2.94-2.33.74-1,1.16-2.11,1.28-3.35.12-1.23-.1-2.45-.64-3.66-.55-1.21-1.32-2.17-2.32-2.9-1-.73-2.12-1.14-3.36-1.25-1.24-.11-2.47.12-3.69.67-1.22.55-2.21,1.33-2.95,2.33-.74,1-1.18,2.12-1.3,3.36-.13,1.24.09,2.46.63,3.67.55,1.21,1.33,2.17,2.34,2.9,1.01.72,2.14,1.14,3.38,1.24,1.24.1,2.48-.12,3.7-.68h0ZM435.41,355.38c-1.53.69-3.08.98-4.63.86-1.56-.12-2.95-.62-4.19-1.5-1.24-.88-2.2-2.06-2.87-3.55-.67-1.49-.93-2.99-.77-4.5.16-1.51.71-2.89,1.64-4.14.93-1.25,2.17-2.22,3.7-2.91,1.53-.69,3.07-.98,4.6-.86,1.54.12,2.93.62,4.18,1.5,1.25.88,2.21,2.07,2.88,3.55.67,1.49.93,2.99.76,4.51-.16,1.52-.71,2.9-1.63,4.13-.92,1.23-2.15,2.2-3.68,2.89h0ZM408.61,351.92l-5.02,3.22-.84-1.31,11.56-7.41.84,1.31-5.02,3.22,8.33,12.98-1.51.97-8.33-12.98h0ZM396.58,358.18l-1.39,1.09,8.51,10.83-17.11-4.07-1.16.91,10.49,13.35,1.41-1.11-8.51-10.83,17.09,4.09,1.16-.91-10.49-13.35h0ZM389.42,384.06l1.12,1.07-8.28,8.69-12.29-11.71,8.03-8.43,1.12,1.07-6.8,7.13,4.37,4.17,6.06-6.35,1.11,1.05-6.06,6.35,4.56,4.35,7.05-7.39h0ZM362.86,390.22l-.86,1.21,6.03,13.24-14.53-1.29-.86,1.21,13.84,9.84,1-1.4-11.01-7.83,13.11,1.14.49-.69-5.44-12.06,11.07,7.87,1-1.4-13.84-9.84h0ZM365.75,594.31l-5.07,8.61,9.79-1.96-4.72-6.64h0ZM366.56,592.93l5.48,7.71,4.88-.97,1.08,1.52-18.33,3.51-1.03-1.44,9.34-16.16,1.1,1.54-2.51,4.29h0ZM370.53,617.78l-1.18-1.36,12.83-11.11,1.17,1.36-12.83,11.11h0ZM388.93,621.86c-1.27-1.1-2.49-1.66-3.64-1.68-1.16-.02-2.18.48-3.06,1.49-.9,1.04-1.25,2.13-1.06,3.27.19,1.14.92,2.26,2.19,3.36l3.41,2.95,5.57-6.43-3.41-2.95h0ZM389.46,613.18l-1.49-1.29-.68,7.11c-1.21-.51-2.36-.64-3.47-.39-1.11.25-2.09.88-2.96,1.88-1.19,1.37-1.65,2.85-1.4,4.43.25,1.59,1.2,3.09,2.83,4.51l4.8,4.16,11.11-12.83-1.36-1.17-3.53,4.07-3.45-2.99c-.35-.31-.71-.59-1.07-.83l.64-6.66h0ZM410.03,631.44c-1.09-.78-2.26-1.23-3.49-1.37-1.23-.13-2.41.06-3.54.58-1.12.52-2.07,1.32-2.84,2.4-.77,1.08-1.21,2.24-1.34,3.47-.12,1.23.08,2.41.61,3.53.53,1.12,1.34,2.07,2.44,2.85,1.09.78,2.26,1.24,3.5,1.37,1.24.14,2.43-.05,3.56-.57,1.13-.52,2.08-1.31,2.85-2.39.77-1.08,1.21-2.24,1.33-3.48.12-1.24-.1-2.42-.63-3.55-.54-1.13-1.35-2.08-2.45-2.86h0ZM410.96,630.13c1.37.97,2.39,2.16,3.07,3.57.68,1.4.95,2.86.82,4.38-.13,1.51-.67,2.93-1.62,4.27-.95,1.33-2.11,2.31-3.5,2.93-1.38.62-2.85.84-4.4.67s-3.01-.76-4.38-1.73c-1.37-.97-2.39-2.16-3.06-3.54-.67-1.39-.94-2.84-.81-4.37.13-1.52.67-2.95,1.62-4.28.95-1.33,2.12-2.31,3.51-2.93,1.4-.62,2.86-.85,4.39-.67,1.53.18,2.98.75,4.35,1.73h0ZM421.61,654.64l7.03-13.73-1.6-.82-7.03,13.73-5.31-2.72-.71,1.38,12.22,6.26.71-1.38-5.31-2.72h0ZM433.98,662.08l5.44-16.08,1.4.47,5.92,16.55,4.42-13.05,1.7.58-5.44,16.08-1.4-.47-5.94-16.55-4.42,13.05-1.68-.57h0ZM459.36,654.23l.35-1.51,11.7,2.7-3.82,16.54-11.34-2.62.35-1.51,9.59,2.22,1.36-5.88-8.55-1.97.34-1.49,8.55,1.97,1.42-6.14-9.95-2.3h0ZM478.47,673.61l1.29-16.93,1.72.13-1.03,13.54,7.52-10.88.85.06,5.79,11.82,1.02-13.47,1.72.13-1.29,16.93-1.48-.11-6.4-13.11-8.24,12-1.47-.11h0ZM647.94,570.46l9.99.04-6.63-7.47-3.36,7.43h0ZM646.35,570.46l3.9-8.62-3.29-3.72.77-1.7,12.27,14.06-.73,1.61-18.67.08.78-1.72h4.97ZM666.21,554.73l-16.08-5.44-.58,1.7,16.08,5.44.57-1.7h0ZM660.65,537.17c-.38,1.64-.3,2.98.22,4.01.52,1.03,1.44,1.7,2.75,2,1.34.31,2.47.11,3.38-.59.92-.7,1.56-1.87,1.94-3.51l1.01-4.4-8.29-1.91-1.01,4.4h0ZM652.73,540.77l6.19-2.55c.05-.44.13-.88.24-1.34l1.03-4.44-5.25-1.21.4-1.75,16.54,3.82-1.43,6.19c-.49,2.11-1.37,3.65-2.66,4.61-1.29.96-2.81,1.24-4.57.84-1.29-.3-2.31-.88-3.05-1.74-.74-.86-1.17-1.94-1.28-3.25l-6.6,2.73.44-1.91h0ZM658.77,513.77c-.1,1.34.11,2.57.63,3.7.52,1.13,1.3,2.04,2.32,2.73,1.03.7,2.2,1.09,3.52,1.19,1.32.1,2.54-.11,3.66-.65,1.12-.53,2.02-1.31,2.71-2.35.69-1.03,1.08-2.22,1.18-3.56.1-1.34-.11-2.57-.63-3.71-.52-1.13-1.3-2.05-2.32-2.75-1.03-.7-2.2-1.1-3.52-1.21-1.32-.1-2.54.12-3.66.66-1.12.54-2.02,1.33-2.71,2.37-.69,1.04-1.08,2.23-1.18,3.57h0ZM657.18,513.65c.13-1.68.62-3.17,1.47-4.47.85-1.31,1.96-2.29,3.33-2.96,1.36-.67,2.86-.94,4.49-.81,1.63.12,3.07.62,4.31,1.48,1.25.87,2.19,2.01,2.84,3.43.65,1.42.9,2.97.78,4.64-.13,1.68-.61,3.16-1.46,4.45-.84,1.29-1.95,2.27-3.32,2.95-1.37.67-2.87.95-4.5.83-1.63-.12-3.07-.62-4.32-1.5-1.25-.87-2.2-2.01-2.84-3.41-.64-1.4-.89-2.94-.77-4.62h0ZM673.25,492.44l-.15-5.96,1.55-.04.35,13.72-1.55.04-.15-5.96-15.42.39-.05-1.79,15.42-.39h0ZM674.07,478.16l-16.71,2.98-.26-1.46,11.64-13.17-13.56,2.42-.32-1.77,16.71-2.98.26,1.46-11.64,13.19,13.56-2.42.31,1.74h0ZM654.52,459.81l-1.49.42-3.28-11.55,16.33-4.64,3.18,11.2-1.49.42-2.69-9.47-5.81,1.65,2.4,8.45-1.47.42-2.4-8.45-6.07,1.72,2.79,9.82h0ZM662.24,433.61l-15.47,6.99-.71-1.57,12.37-5.59-13.16-1.37-.35-.77,7.59-10.75-12.31,5.56-.71-1.57,15.47-6.99.61,1.35-8.43,11.9,14.48,1.47.61,1.35Z"/>
      <path class="cls-2" d="M348.91,444.05l2.5.85-4.08,12.06-16.08-5.44,3.97-11.74,2.5.85-2.96,8.75,4.18,1.42,2.63-7.76,2.46.83-2.63,7.76,4.43,1.5,3.07-9.07h0ZM345.02,467.47l-11.08-1.95,8.19,7.13-.25,1.38-10,3.88,10.93,1.95-.53,2.96-16.71-2.98.46-2.55,12.26-4.66-9.91-8.5.46-2.56,16.72,2.96-.52,2.94h0ZM325,493.27l.08-3.15,16.97.43-.08,3.15-16.97-.43h0ZM325.16,511.84l-.08-3.15,14.31-.36-.22-8.87,2.67-.07.3,12.02-16.97.43h0ZM341.29,525.1c-.43-2.4-1.45-3.46-3.06-3.17-1.61.29-2.2,1.63-1.77,4.03l.9,5.01,4.82-.86-.89-5.01h0ZM330.34,532.23l4.61-.82-.78-4.39c-.19-1.08-.54-1.88-1.03-2.39-.49-.51-1.12-.7-1.86-.57-.76.14-1.29.53-1.58,1.18-.29.65-.33,1.52-.14,2.6l.78,4.39h0ZM334.37,522.49c.14-.98.51-1.8,1.12-2.47.61-.67,1.44-1.1,2.49-1.28,1.45-.26,2.67.1,3.65,1.07.99.97,1.67,2.53,2.05,4.66l1.48,8.31-16.71,2.98-1.4-7.83c-.35-1.97-.24-3.56.34-4.77.58-1.2,1.55-1.93,2.9-2.17.83-.15,1.59-.09,2.3.18.7.27,1.29.71,1.76,1.31h0ZM349.31,547.22c.75,2.22.71,4.16-.12,5.82-.83,1.66-2.41,2.89-4.73,3.68l-9.07,3.07-1.01-2.99,8.96-3.03c3.15-1.07,4.27-2.96,3.35-5.69-.92-2.71-2.95-3.53-6.11-2.47l-8.96,3.03-.99-2.94,9.07-3.07c2.33-.79,4.32-.78,5.99.04,1.67.81,2.87,2.33,3.63,4.55h0ZM356.57,566.13c.54,1.19.89,2.42,1.06,3.69.16,1.27.11,2.35-.15,3.25h-2.68c.21-.84.27-1.81.17-2.87-.1-1.06-.36-2.06-.78-2.99-.52-1.15-1.09-1.92-1.72-2.33-.62-.4-1.24-.46-1.84-.19-.44.2-.74.52-.88.97-.14.45-.19.95-.13,1.51.06.56.17,1.3.35,2.24.25,1.3.4,2.39.45,3.24.05.86-.11,1.68-.47,2.47-.36.79-1.05,1.42-2.06,1.88-.86.39-1.74.51-2.65.36-.91-.15-1.78-.6-2.62-1.34-.84-.75-1.56-1.8-2.17-3.16-.43-.94-.73-1.93-.91-2.94-.18-1.02-.2-1.96-.05-2.83l2.64-.1c-.09.86-.07,1.7.05,2.53.13.83.35,1.59.66,2.28.51,1.13,1.09,1.89,1.72,2.27.63.38,1.27.43,1.9.14.44-.2.73-.52.87-.96.14-.44.18-.94.12-1.5-.06-.56-.17-1.3-.35-2.24-.25-1.27-.4-2.34-.45-3.2-.05-.87.11-1.69.46-2.48.35-.79,1.03-1.41,2.03-1.86.85-.39,1.73-.5,2.64-.35.9.15,1.77.61,2.61,1.36.84.76,1.56,1.81,2.18,3.17h0ZM626.51,400.1l-2,1.73-8.34-9.62,12.83-11.12,8.11,9.37-2,1.73-6.05-6.98-3.34,2.89,5.37,6.2-1.96,1.7-5.37-6.2-3.54,3.06,6.27,7.24h0ZM608.68,384.73l2.25,1.95,11.1-12.85-1.96-1.7-12.37,4.17,2.27-12.92-1.96-1.7-11.11,12.83,2.27,1.97,7.27-8.4-1.79,10.58,1.06.92,10.31-3.39-7.35,8.52h0ZM597.69,354.45l2.57,1.83-9.84,13.83-2.57-1.83,9.84-13.83h0ZM581.18,344.41l2.73,1.57-7.13,12.41,7.69,4.42-1.33,2.31-10.43-6,8.46-14.72h0ZM561.54,351.3c2.27.9,3.71.58,4.3-.94.6-1.52-.24-2.73-2.51-3.62l-4.74-1.87-1.8,4.56,4.74,1.87h0ZM561.22,338.25l-1.72,4.35,4.15,1.64c1.02.4,1.88.53,2.58.38.69-.15,1.18-.58,1.46-1.29.28-.72.22-1.38-.18-1.96-.4-.58-1.12-1.08-2.14-1.48l-4.15-1.64h0ZM567.39,346.78c.76.63,1.26,1.38,1.51,2.25.25.87.18,1.8-.22,2.8-.54,1.37-1.48,2.22-2.83,2.55-1.35.33-3.03.1-5.04-.7l-7.85-3.1,6.23-15.79,7.4,2.92c1.87.74,3.16,1.67,3.88,2.79.72,1.13.83,2.33.32,3.61-.31.78-.76,1.4-1.36,1.86-.6.46-1.28.73-2.04.81h0ZM538.57,346.56c-2.28-.53-3.92-1.58-4.9-3.16-.98-1.58-1.19-3.57-.64-5.96l2.16-9.33,3.07.71-2.13,9.22c-.75,3.24.28,5.19,3.08,5.84,2.79.64,4.56-.66,5.31-3.9l2.13-9.22,3.03.7-2.16,9.33c-.55,2.39-1.61,4.09-3.18,5.08-1.56.99-3.49,1.22-5.77.7h0ZM518.35,342.93c-1.3-.17-2.53-.51-3.69-1.03-1.16-.52-2.06-1.13-2.69-1.83l1.39-2.29c.62.63,1.41,1.18,2.37,1.66.96.47,1.94.77,2.95.9,1.25.16,2.21.08,2.88-.25.67-.32,1.04-.81,1.13-1.47.06-.48-.06-.9-.37-1.26-.31-.36-.71-.66-1.22-.9-.51-.24-1.2-.54-2.09-.88-1.24-.47-2.24-.9-3-1.31-.75-.41-1.38-.97-1.86-1.69-.49-.72-.66-1.64-.52-2.74.12-.93.48-1.74,1.08-2.44.6-.7,1.44-1.21,2.52-1.53,1.08-.32,2.35-.39,3.83-.2,1.03.13,2.02.39,2.98.77.96.38,1.77.86,2.43,1.43l-1.3,2.3c-.68-.53-1.41-.95-2.18-1.28-.77-.33-1.54-.54-2.29-.63-1.23-.16-2.18-.06-2.83.28-.66.34-1.03.86-1.11,1.55-.06.48.06.9.37,1.25.3.35.71.64,1.22.89.51.24,1.2.54,2.09.88,1.21.45,2.2.88,2.96,1.29.76.41,1.39.98,1.87,1.69.49.71.66,1.62.52,2.71-.12.93-.48,1.74-1.08,2.43-.6.69-1.44,1.19-2.53,1.51-1.08.32-2.36.38-3.84.2h0ZM518.48,659.58l-.46-2.6,12.53-2.24,2.98,16.71-12.2,2.18-.46-2.6,9.1-1.62-.78-4.34-8.07,1.44-.46-2.56,8.07-1.44-.82-4.61-9.43,1.68h0ZM540.98,652.8l3.63,10.65,2.3-10.61,1.33-.45,8.22,6.89-3.56-10.52,2.85-.96,5.44,16.08-2.46.83-9.99-8.5-2.67,12.78-2.46.83-5.46-16.07,2.82-.96h0ZM572.8,658.87l-2.87,1.3-6.99-15.47,2.87-1.3,6.99,15.47h0ZM589.92,649.83l-8.46-14.72-10.43,6,1.33,2.31,7.69-4.42,7.13,12.4,2.73-1.57h0ZM593.98,629.96c-1.99,1.42-2.51,2.79-1.56,4.12.95,1.33,2.41,1.29,4.4-.13l4.15-2.95-2.84-3.99-4.15,2.95h0ZM605.1,636.81l-3.64,2.59c-.9.64-1.7.96-2.41.98-.71.02-1.29-.29-1.74-.92-.44-.62-.53-1.26-.28-1.93.25-.66.82-1.32,1.72-1.95l3.64-2.59,2.71,3.81h0ZM594.58,637.33c-.94.29-1.85.31-2.71.04-.86-.27-1.61-.84-2.23-1.71-.85-1.2-1.05-2.45-.59-3.76.46-1.31,1.57-2.59,3.34-3.85l6.88-4.89,9.84,13.83-6.48,4.61c-1.63,1.16-3.12,1.74-4.46,1.73-1.34-.01-2.4-.58-3.2-1.7-.49-.69-.76-1.4-.82-2.16-.06-.75.09-1.47.43-2.15h0ZM610.06,612.76c-1.7,1.62-2.56,3.35-2.6,5.2-.03,1.85.8,3.67,2.49,5.45l6.61,6.93,2.25-2.14-6.53-6.85c-2.3-2.41-2.41-4.6-.34-6.58,2.08-1.99,4.27-1.77,6.57.64l6.53,6.85,2.28-2.18-6.61-6.93c-1.69-1.78-3.47-2.69-5.33-2.74-1.86-.05-3.63.73-5.33,2.35h0ZM623.75,597.56c.81-1.03,1.74-1.91,2.78-2.64,1.05-.73,2.03-1.18,2.95-1.36l1.25,2.37c-.86.21-1.74.6-2.64,1.18-.9.58-1.66,1.27-2.29,2.07-.78.99-1.2,1.86-1.27,2.6-.07.74.16,1.31.68,1.72.38.3.8.41,1.27.33.46-.08.93-.27,1.4-.58.47-.31,1.08-.76,1.83-1.34,1.04-.83,1.93-1.46,2.66-1.9.74-.44,1.54-.68,2.41-.73.87-.05,1.74.27,2.62.96.74.58,1.25,1.31,1.54,2.18.29.88.29,1.86.02,2.94-.28,1.09-.88,2.22-1.8,3.39-.64.81-1.37,1.53-2.19,2.16-.82.63-1.65,1.08-2.48,1.35l-1.31-2.29c.8-.32,1.54-.72,2.22-1.22.68-.5,1.25-1.04,1.72-1.64.77-.98,1.18-1.84,1.22-2.57.04-.74-.21-1.32-.75-1.75-.38-.3-.8-.41-1.26-.32-.46.08-.92.28-1.39.59-.47.31-1.08.76-1.83,1.34-1.01.81-1.89,1.44-2.63,1.88-.75.44-1.55.69-2.42.74-.86.05-1.73-.26-2.59-.94-.74-.58-1.25-1.3-1.53-2.17-.28-.87-.28-1.85,0-2.94.28-1.09.88-2.22,1.8-3.39Z"/>
    </g>
  </g>
</svg>