<?xml version="1.0" encoding="UTF-8"?>
<svg xmlns="http://www.w3.org/2000/svg" viewBox="0 0 1000 1000">
  <defs>
    <style>
      .cls-1 {
        fill: #2d2d2d;
      }

      .cls-2 {
        fill: #bda788;
      }

      .cls-2, .cls-3 {
        fill-rule: evenodd;
      }

      .cls-3, .cls-4 {
        fill: #f4f1e6;
      }
    </style>
  </defs>
  <rect class="cls-1" width="1000" height="1000"/>
  <g id="VERTICAL">
    <g>
      <g>
        <polygon class="cls-3" points="370.98 559.61 370.98 569.08 370.02 569.08 370.02 561.5 366.29 567.88 365.82 567.88 362.1 561.54 362.1 569.08 361.14 569.08 361.14 559.61 361.96 559.61 366.08 566.63 370.15 559.61 370.98 559.61"/>
        <polygon class="cls-3" points="411.63 568.21 411.63 569.08 404.94 569.08 404.94 559.61 411.43 559.61 411.43 560.47 405.94 560.47 405.94 563.84 410.84 563.84 410.84 564.7 405.94 564.7 405.94 568.21 411.63 568.21"/>
        <polygon class="cls-3" points="452.78 559.61 452.78 569.08 451.95 569.08 445.86 561.39 445.86 569.08 444.86 569.08 444.86 559.61 445.69 559.61 451.79 567.29 451.79 559.61 452.78 559.61"/>
        <polygon class="cls-3" points="488.58 560.47 485.25 560.47 485.25 559.61 492.91 559.61 492.91 560.47 489.58 560.47 489.58 569.08 488.58 569.08 488.58 560.47"/>
        <path class="cls-3" d="M529.39,569.16c-.93,0-1.79-.22-2.54-.64-.77-.42-1.37-.99-1.79-1.72-.43-.73-.65-1.56-.65-2.46s.22-1.73.65-2.46c.42-.73,1.01-1.31,1.79-1.73.76-.42,1.61-.62,2.54-.62s1.79.2,2.54.62c.74.42,1.34.99,1.77,1.72.43.74.65,1.57.65,2.48s-.22,1.73-.65,2.46c-.43.74-1.03,1.31-1.77,1.73-.76.42-1.61.62-2.54.62h0ZM529.39,568.27c.74,0,1.42-.18,2.03-.51.61-.34,1.08-.8,1.42-1.41.34-.6.51-1.26.51-2s-.18-1.41-.51-2.02c-.34-.6-.81-1.07-1.42-1.41-.61-.34-1.29-.5-2.03-.5s-1.42.16-2.03.5c-.61.34-1.1.81-1.43,1.41-.35.61-.53,1.27-.53,2.02s.18,1.41.53,2c.34.61.83,1.07,1.43,1.41.61.34,1.29.51,2.03.51Z"/>
        <path class="cls-3" d="M573.94,569.08l-2.16-3.05c-.24.03-.5.04-.76.04h-2.54v3h-1v-9.47h3.55c1.2,0,2.15.28,2.84.87.69.58,1.03,1.37,1.03,2.38,0,.74-.19,1.37-.55,1.87-.38.51-.92.88-1.61,1.11l2.31,3.25h-1.1ZM570.99,565.22c.93,0,1.65-.2,2.15-.62.5-.42.74-1,.74-1.75s-.24-1.35-.74-1.77c-.5-.41-1.22-.61-2.15-.61h-2.52v4.75h2.52Z"/>
        <rect class="cls-4" x="608.13" y="559.61" width="1" height="9.47"/>
        <path class="cls-3" d="M649.03,566.55h-5.28l-1.14,2.53h-1.04l4.33-9.47h.99l4.33,9.47h-1.06l-1.14-2.53h0ZM648.67,565.74l-2.27-5.09-2.27,5.09h4.55Z"/>
      </g>
      <path class="cls-2" d="M420.65,467.35v60.24h-13.26c1.55-.28,2.96-1.08,4.24-2.41,1.28-1.33,1.91-2.68,1.91-4.06v-53.5c-3.01.55-5.88,1.51-8.61,2.89-5.92,2.75-10.76,6.92-14.49,12.52-3.74,5.78-5.65,12.1-5.74,18.98-.18,6.14,1.14,11.97,3.97,17.47,2.83,5.5,6.75,9.95,11.76,13.34,5.29,3.48,11.17,5.32,17.64,5.5,8.2.09,14.95-2.43,20.24-7.57,3.65-3.58,5.83-7.68,6.56-12.31.73-4.63-.11-9.17-2.53-13.62-2.42-4.45-6.13-8.05-11.14-10.8l9.98-.96c3.92,4.49,6.13,9.83,6.63,16.02.5,6.19-.84,11.9-4.03,17.12,4.56-.09,8.73-.8,12.51-2.13,3.78-1.33,6.91-3.14,9.37-5.43,2.46-2.29,4.53-4.91,6.22-7.84,1.69-2.93,2.74-6.03,3.14-9.28.41-3.25.43-6.51.07-9.76-.36-3.26-1.39-6.35-3.08-9.28-1.69-2.93-3.74-5.52-6.15-7.77-2.42-2.25-5.52-4.04-9.3-5.36-3.78-1.33-7.91-1.99-12.37-1.99h-23.52ZM423.24,465.7h18.6c3.65-.28,6.81-1.28,9.5-3.03,2.69-1.74,4.63-3.83,5.81-6.26,1.19-2.43,1.73-5.04,1.64-7.84-.09-2.8-.8-5.34-2.12-7.63-1.32-2.29-3.44-4.22-6.36-5.78-2.92-1.56-6.33-2.34-10.25-2.34h-19.42v32.87h2.6ZM413.53,437.92c0-1.47-.64-2.86-1.91-4.2-1.28-1.33-2.69-2.13-4.24-2.41h35c4.47,0,8.41.71,11.83,2.13,3.42,1.42,6.04,3.23,7.86,5.43,1.82,2.2,2.99,4.65,3.49,7.36.5,2.7.34,5.34-.48,7.91-.82,2.57-2.42,4.93-4.79,7.08-2.37,2.15-5.29,3.74-8.75,4.75,5.2.55,9.87,1.86,14.01,3.92,4.15,2.06,7.47,4.56,9.98,7.5,2.51,2.93,4.38,6.24,5.61,9.9,1.23,3.67,1.73,7.36,1.5,11.07s-1.19,7.34-2.87,10.87c-1.69,3.53-3.99,6.65-6.9,9.35-2.92,2.7-6.68,4.88-11.28,6.53s-9.73,2.48-15.38,2.48h-3.42c-1,1.47-2.14,2.84-3.42,4.13-5.56,5.5-12.67,8.16-21.33,7.98-6.75-.09-12.9-2.02-18.46-5.78-5.2-3.48-9.25-8.07-12.17-13.75-2.92-5.78-4.33-11.87-4.24-18.29.18-7.15,2.23-13.71,6.15-19.67,3.83-5.78,8.84-10.13,15.04-13.07,2.92-1.38,5.97-2.34,9.16-2.89v-28.33h0ZM315.2,492.03c-3.09-7.43-22.05-22.95-33.28-32.34-7.43-6.2-12.27-12.34-12.43-16.51-.23-5.14,4.8-10.01,10.56-10.01h7.4c10.89,0,15.13,8.63,16.84,20.34h.76v-22.44h-25.05c-1.78,0-5.24.21-6.78.76-5.54,1.89-10.59,5.65-10.98,11.72-.14,2.28.05,8.56,6.11,15.18,3.25,3.55,14.37,12.69,21.8,19.01,6.46,5.49,14.85,13.33,17.11,18.22,2.56,5.56,1.71,13.86-3.28,20.51-3.99,5.3-8.7,9.57-18.54,9.57-8.53,0-18.29-4.34-23.16-14.07-3.78-7.57-3.3-14.46-2.81-24.52h-.78l-6.69,12.39c3.21,15.5,15.15,28.28,33.31,28.28,9.32,0,19.31-4.64,25.07-11.95,5.33-6.85,8.49-15.29,4.82-24.13h0ZM393,475.48v-37.8c.09-1.38-.5-2.73-1.78-4.07-1.28-1.33-2.74-2.13-4.38-2.41h13.81c-1.64.28-3.08,1.08-4.31,2.41-1.23,1.33-1.85,2.69-1.85,4.07v36.36c-.51.46-1.02.94-1.5,1.44h0ZM387.45,512.74c1.13-1.72,2.11-3.64,2.96-5.75,1.73-4.32,2.6-9.14,2.6-14.47v-10.73c.48-.63.98-1.25,1.5-1.84v12.57c0,5.79-1,11.02-3.01,15.71-1,2.33-2.15,4.44-3.47,6.33-.21-.6-.41-1.21-.59-1.82h0ZM331.34,437.68v54.84c0,5.51.89,10.47,2.67,14.88,1.78,4.41,4.1,7.95,6.97,10.61,2.87,2.66,6.18,4.71,9.91,6.13,3.74,1.42,7.52,2.11,11.35,2.07,3.83-.05,7.59-.83,11.28-2.34,3.69-1.52,7-3.63,9.91-6.34.31-.29.62-.59.91-.89.2.54.42,1.08.65,1.61-.46.47-.93.92-1.42,1.35-3.28,2.89-7.04,5.1-11.28,6.61-4.24,1.52-8.55,2.27-12.92,2.27s-8.68-.76-12.92-2.27c-4.24-1.52-8-3.72-11.28-6.61-3.28-2.89-5.92-6.68-7.93-11.37-2.01-4.68-3.01-9.92-3.01-15.71v-54.84c0-1.38-.62-2.73-1.85-4.07-1.23-1.33-2.67-2.13-4.31-2.41h19.42c-1.64.28-3.08,1.08-4.31,2.41-1.23,1.33-1.85,2.69-1.85,4.07h0ZM748,514.52l-.55,13.14h-59.34c1.64-.28,3.08-1.06,4.31-2.35,1.23-1.29,1.85-2.67,1.85-4.15v-16.46c-4.83-.83-9.3-2.58-13.4-5.26-5.2-3.5-9.25-8.16-12.17-13.97-2.92-5.81-4.33-11.94-4.24-18.4.09-7.1,2.14-13.69,6.15-19.78,4.19-6.45,9.07-10.81,14.63-13.07,5.56-2.26,12.53-3.39,20.92-3.39h41.29v.69l.55,12.45c-.55-2.31-1.82-4.84-3.83-7.61-2.01-2.77-4.19-4.15-6.56-4.15h-31.45c-8.11,0-14.81,1.04-20.1,3.11-5.29,2.07-10.07,6.34-14.36,12.79-3.74,5.81-5.7,12.17-5.88,19.09-.09,6.18,1.28,12.03,4.1,17.57,2.92,5.63,6.84,10.1,11.76,13.42,3.83,2.58,8.02,4.24,12.58,4.98v-57.27c0-1.48-.62-2.86-1.85-4.15-1.23-1.29-2.67-2.12-4.31-2.49h13.26v64.46c7.38-.37,13.49-2.91,18.32-7.61,3.55-3.6,5.7-7.72,6.43-12.38.73-4.66-.11-9.22-2.53-13.69-2.42-4.47-6.13-8.09-11.14-10.86l9.98-.97c4.83,5.35,7.09,11.85,6.77,19.5-.32,7.65-3.17,14.11-8.55,19.37-5.1,5.07-11.53,7.75-19.28,8.02v21.16h36.23c2.37,0,4.56-1.38,6.56-4.15,2.01-2.77,3.28-5.3,3.83-7.61h0ZM498.01,438.38v87.92h36.23c2.37,0,4.58-1.37,6.63-4.1,2.05-2.74,3.35-5.24,3.9-7.52l-.68,12.99h-59.34c1.64-.27,3.08-1.07,4.31-2.39,1.23-1.32,1.85-2.71,1.85-4.17v-82.72c0-1.37-.62-2.71-1.85-4.03-1.23-1.32-2.67-2.12-4.31-2.39h19.42c-1.55.27-2.96,1.07-4.24,2.39-1.28,1.32-1.91,2.67-1.91,4.03h0ZM564.32,438.38v82.72c0,1.46.61,2.85,1.85,4.17,1.23,1.32,2.67,2.12,4.31,2.39h-19.42c1.64-.27,3.08-1.07,4.31-2.39,1.23-1.32,1.85-2.71,1.85-4.17v-82.72c0-1.37-.62-2.71-1.85-4.03-1.23-1.32-2.67-2.12-4.31-2.39h19.42c-1.55.27-2.96,1.07-4.24,2.39-1.28,1.32-1.91,2.67-1.91,4.03h0ZM586.25,432.13h-13.51c2.4.64,4.22,1.73,5.46,3.29,1.24,1.55,1.9,4.15,1.98,7.8v73.38c-.08,3.65-.74,6.27-1.98,7.87-1.24,1.6-3.06,2.67-5.46,3.22h15.87c-2.4-.55-4.22-1.62-5.46-3.22-1.24-1.6-1.9-4.22-1.98-7.87v-74.47l34.34,86.66,37.07-93.91v81.73c0,3.74-.62,6.39-1.86,7.94-1.24,1.55-3.06,2.6-5.45,3.15h23.06c-2.4-.55-4.22-1.6-5.46-3.15-1.24-1.55-1.9-4.2-1.98-7.94v-73.38c.08-3.65.74-6.25,1.98-7.8,1.24-1.55,3.06-2.65,5.46-3.29h-15.75l-33.1,83.92-33.23-83.92Z"/>
    </g>
  </g>
</svg>