<?xml version="1.0" encoding="UTF-8"?>
<svg xmlns="http://www.w3.org/2000/svg" xmlns:xlink="http://www.w3.org/1999/xlink" viewBox="0 0 1000 1000">
  <defs>
    <style>
      .cls-1 {
        fill: url(#GradientFill_1);
      }

      .cls-1, .cls-2, .cls-3 {
        fill-rule: evenodd;
      }

      .cls-4 {
        fill: #2d2d2d;
      }

      .cls-2 {
        fill: #bda788;
      }

      .cls-3, .cls-5 {
        fill: #f4f1e6;
      }
    </style>
    <linearGradient id="GradientFill_1" data-name="GradientFill 1" x1="302.26" y1="408.32" x2="302.26" y2="554.71" gradientUnits="userSpaceOnUse">
      <stop offset="0" stop-color="#8e7028"/>
      <stop offset="0" stop-color="#8e7028"/>
      <stop offset=".17" stop-color="#ab9051"/>
      <stop offset=".48" stop-color="#f2ea9c"/>
      <stop offset=".78" stop-color="#ab9051"/>
      <stop offset="1" stop-color="#8e7028"/>
    </linearGradient>
  </defs>
  <rect class="cls-4" width="1000" height="1000"/>
  <g id="HORIZONTAL">
    <g>
      <path class="cls-1" d="M312.32,491.28c.24,5.43,8.66,19.68,13.6,28.25,3.27,5.66,4.92,10.68,4.05,13.37-1.05,3.32-5.37,5.24-9.03,3.9l-1.87-.69c-.22.43-.46.85-.7,1.25l2.12.78c1.13.41,3.37,1.09,4.48,1.09,3.95.09,8.03-1.12,9.69-4.88.62-1.42,1.96-5.44-.35-11.05-1.24-3.01-6.17-11.39-9.41-17.12-2.82-4.98-6.33-11.91-6.62-15.54-.33-4.12,2.14-9.19,6.84-12.25,3.76-2.44,7.74-4.05,13.99-1.76,5.41,1.98,10.6,7,11.42,14.31.64,5.68-1.27,9.94-3.91,16.21l.5.18,7.12-6.3c1.57-10.58-3.04-21.46-14.56-25.68-5.91-2.17-13.33-1.55-18.68,1.75-4.97,3.11-8.94,7.73-8.67,14.19h0ZM305.97,506.39c6.46.25,10.74,4.58,13.44,9.78,2.86,5.61,2.87,13.05.24,18.76-5.14,11.14-16.36,14.85-26.77,12.43l-5.71-7.61.22-.48c6.03,3.14,10.13,5.39,15.84,5.21,7.35-.23,12.77-4.99,15.19-10.23,2.79-6.04,1.5-10.14-.63-14.09-2.67-4.94-7.52-7.81-11.65-7.81-3.64,0-10.83,2.94-16.02,5.34-5.98,2.77-14.73,7.01-17.83,8-5.78,1.85-9.68.19-11.04-.54-3.61-1.96-4.49-6.12-4.08-10.05.1-1.1.95-3.29,1.45-4.38l.13-.28c.38.28.77.56,1.18.83h0c-1.63,3.55-.07,8.01,3.15,9.33,2.61,1.08,7.74-.15,13.65-2.95,8.94-4.23,23.83-11.47,29.26-11.27h0ZM291.81,499.05c.11-5.43-7.4-20.19-11.8-29.05-2.91-5.86-4.24-10.97-3.2-13.59,1.25-3.24,5.69-4.89,9.25-3.32l.48.21c.27-.41.55-.8.84-1.18l-.77-.34c-1.1-.48-3.3-1.29-4.4-1.37-3.94-.34-8.08.62-9.98,4.26-.71,1.37-2.3,5.31-.34,11.05,1.05,3.08,5.44,11.75,8.32,17.68,2.5,5.15,5.57,12.28,5.64,15.92.07,4.13-2.71,9.04-7.6,11.79-3.91,2.2-7.98,3.56-14.07.88-5.28-2.32-10.14-7.65-10.5-15-.28-5.71,1.89-9.84,4.92-15.93l-.49-.21-7.5,5.84c-2.23,10.46,1.69,21.61,12.92,26.54,5.76,2.53,13.2,2.38,18.76-.58,5.16-2.79,9.41-7.15,9.54-13.61h0ZM298.03,483.59c-6.14-.17-10.26-4.24-12.88-9.17-2.77-5.3-2.86-12.38-.41-17.84,4.77-10.64,15.4-14.29,25.33-12.09l5.5,7.18-.21.46c-5.77-2.93-9.68-5.02-15.11-4.79-6.99.29-12.09,4.88-14.34,9.88-2.59,5.77-1.32,9.65.74,13.39,2.59,4.67,7.23,7.35,11.16,7.31,3.46-.04,10.27-2.9,15.18-5.24,5.66-2.69,13.93-6.81,16.87-7.78,5.47-1.82,9.2-.28,10.5.41,3.45,1.82,4.33,5.77,3.98,9.52-.05.66-.38,1.72-.73,2.68-.43-.25-.88-.49-1.34-.72.48-2.98-1.02-6.11-3.6-7.13-2.49-1-7.36.22-12.95,2.95-8.46,4.12-22.54,11.15-27.71,11.01Z"/>
      <g>
        <polygon class="cls-3" points="468.22 548.98 468.22 556.06 467.51 556.06 467.51 550.4 464.73 555.16 464.37 555.16 461.59 550.43 461.59 556.06 460.87 556.06 460.87 548.98 461.49 548.98 464.56 554.23 467.61 548.98 468.22 548.98"/>
        <polygon class="cls-3" points="498.61 555.41 498.61 556.06 493.6 556.06 493.6 548.98 498.46 548.98 498.46 549.63 494.35 549.63 494.35 552.15 498.01 552.15 498.01 552.78 494.35 552.78 494.35 555.41 498.61 555.41"/>
        <polygon class="cls-3" points="529.36 548.98 529.36 556.06 528.74 556.06 524.19 550.32 524.19 556.06 523.44 556.06 523.44 548.98 524.06 548.98 528.62 554.73 528.62 548.98 529.36 548.98"/>
        <polygon class="cls-3" points="556.11 549.63 553.62 549.63 553.62 548.98 559.35 548.98 559.35 549.63 556.86 549.63 556.86 556.06 556.11 556.06 556.11 549.63"/>
        <path class="cls-3" d="M586.61,556.12c-.7,0-1.33-.16-1.9-.48-.58-.31-1.02-.74-1.33-1.28-.32-.55-.49-1.16-.49-1.84s.16-1.29.49-1.84c.31-.55.76-.98,1.33-1.29.57-.31,1.2-.47,1.9-.47s1.33.15,1.9.47c.56.31,1,.74,1.32,1.28.32.56.48,1.17.48,1.85s-.16,1.29-.48,1.84c-.32.56-.77.98-1.32,1.29-.57.31-1.2.47-1.9.47h0ZM586.61,555.45c.56,0,1.06-.13,1.52-.38.46-.25.81-.6,1.06-1.05.25-.45.38-.94.38-1.5s-.13-1.05-.38-1.51c-.25-.45-.61-.8-1.06-1.05-.46-.25-.96-.37-1.52-.37s-1.06.12-1.52.37-.82.61-1.07,1.05c-.26.46-.39.95-.39,1.51s.13,1.05.39,1.5c.25.46.62.8,1.07,1.05s.96.38,1.52.38Z"/>
        <path class="cls-3" d="M619.9,556.06l-1.62-2.28c-.18.02-.37.03-.57.03h-1.9v2.24h-.75v-7.08h2.65c.9,0,1.61.21,2.12.65.52.43.77,1.02.77,1.78,0,.56-.14,1.02-.41,1.4-.28.38-.69.66-1.2.83l1.73,2.43h-.82ZM617.7,553.18c.7,0,1.23-.15,1.61-.47.37-.31.56-.75.56-1.3s-.18-1.01-.56-1.32c-.37-.3-.91-.46-1.61-.46h-1.88v3.55h1.88Z"/>
        <rect class="cls-5" x="645.45" y="548.98" width=".75" height="7.08"/>
        <path class="cls-3" d="M676.02,554.17h-3.94l-.85,1.89h-.78l3.24-7.08h.74l3.24,7.08h-.79l-.85-1.89h0ZM675.74,553.56l-1.7-3.8-1.7,3.8h3.4Z"/>
      </g>
      <path class="cls-2" d="M505.35,480.03v45.02h-9.91c1.16-.21,2.21-.81,3.17-1.8.95-.99,1.43-2,1.43-3.03v-39.99c-2.25.41-4.39,1.13-6.44,2.16-4.43,2.06-8.04,5.17-10.83,9.35-2.79,4.32-4.22,9.05-4.29,14.19-.14,4.59.85,8.94,2.96,13.05,2.11,4.11,5.04,7.44,8.79,9.97,3.95,2.6,8.35,3.97,13.18,4.11,6.13.07,11.17-1.82,15.12-5.65,2.73-2.67,4.36-5.74,4.9-9.2.55-3.46-.08-6.85-1.89-10.18-1.81-3.32-4.58-6.01-8.33-8.07l7.46-.72c2.93,3.36,4.58,7.35,4.96,11.98.37,4.63-.63,8.89-3.01,12.8,3.41-.07,6.52-.6,9.35-1.59,2.83-.99,5.16-2.35,7-4.06,1.84-1.71,3.39-3.67,4.65-5.86,1.26-2.19,2.04-4.51,2.35-6.94.31-2.43.32-4.86.05-7.3-.27-2.43-1.04-4.75-2.3-6.94-1.26-2.19-2.79-4.13-4.6-5.81-1.81-1.68-4.12-3.02-6.95-4.01-2.83-.99-5.91-1.49-9.25-1.49h-17.58ZM507.29,478.8h13.9c2.73-.21,5.09-.96,7.1-2.26,2.01-1.3,3.46-2.86,4.34-4.68.89-1.82,1.29-3.77,1.23-5.86-.07-2.09-.6-3.99-1.58-5.71-.99-1.71-2.57-3.15-4.75-4.32-2.18-1.17-4.73-1.75-7.66-1.75h-14.51v24.57h1.94ZM500.03,458.03c0-1.1-.48-2.14-1.43-3.14-.95-.99-2.01-1.59-3.17-1.8h26.16c3.34,0,6.28.53,8.84,1.59,2.55,1.06,4.51,2.42,5.88,4.06,1.36,1.65,2.23,3.48,2.61,5.5.37,2.02.26,3.99-.36,5.91-.61,1.92-1.81,3.68-3.58,5.29-1.77,1.61-3.95,2.79-6.54,3.55,3.88.41,7.37,1.39,10.47,2.93,3.1,1.54,5.59,3.41,7.46,5.6,1.87,2.19,3.27,4.66,4.19,7.4.92,2.74,1.29,5.5,1.12,8.28-.17,2.78-.89,5.48-2.15,8.12-1.26,2.64-2.98,4.97-5.16,6.99-2.18,2.02-4.99,3.65-8.43,4.88-3.44,1.23-7.27,1.85-11.5,1.85h-2.55c-.75,1.1-1.6,2.12-2.55,3.08-4.16,4.11-9.47,6.1-15.94,5.96-5.04-.07-9.64-1.51-13.8-4.32-3.88-2.6-6.91-6.03-9.09-10.28-2.18-4.32-3.24-8.87-3.17-13.67.14-5.35,1.67-10.25,4.6-14.7,2.86-4.32,6.61-7.57,11.24-9.77,2.18-1.03,4.46-1.75,6.85-2.16v-21.18h0ZM426.54,498.47c-2.31-5.55-16.48-17.15-24.88-24.17-5.55-4.64-9.17-9.22-9.29-12.34-.17-3.84,3.59-7.48,7.9-7.48h5.53c8.14,0,11.31,6.45,12.58,15.2h.57v-16.77h-18.72c-1.33,0-3.91.16-5.07.57-4.14,1.41-7.91,4.22-8.21,8.76-.1,1.71.03,6.4,4.57,11.34,2.43,2.65,10.74,9.48,16.29,14.2,4.83,4.1,11.1,9.96,12.79,13.62,1.91,4.15,1.28,10.36-2.45,15.33-2.98,3.96-6.5,7.15-13.86,7.15-6.38,0-13.67-3.24-17.31-10.52-2.83-5.65-2.47-10.81-2.1-18.32h-.59l-5,9.26c2.4,11.58,11.33,21.13,24.89,21.13,6.96,0,14.43-3.46,18.74-8.93,3.98-5.12,6.34-11.43,3.6-18.03h0ZM484.69,486.1v-28.25c.07-1.03-.37-2.04-1.33-3.04-.95-.99-2.04-1.6-3.27-1.8h10.32c-1.23.21-2.3.81-3.22,1.8-.92,1-1.38,2.01-1.38,3.04v27.17c-.38.35-.76.71-1.12,1.07h0ZM480.54,513.95c.84-1.29,1.58-2.72,2.21-4.29,1.29-3.23,1.94-6.83,1.94-10.81v-8.02c.36-.47.74-.93,1.12-1.37v9.4c0,4.33-.75,8.24-2.25,11.74-.75,1.74-1.61,3.32-2.59,4.73-.16-.45-.3-.9-.44-1.36h0ZM438.6,457.86v40.99c0,4.12.66,7.83,1.99,11.12,1.33,3.3,3.07,5.94,5.21,7.93,2.15,1.99,4.62,3.52,7.41,4.58,2.79,1.06,5.62,1.58,8.48,1.54,2.86-.03,5.67-.62,8.43-1.75,2.76-1.13,5.23-2.71,7.41-4.74.23-.22.46-.44.68-.67.15.4.31.8.48,1.2-.34.35-.7.69-1.06,1.01-2.45,2.16-5.26,3.81-8.43,4.94-3.17,1.13-6.39,1.7-9.66,1.7s-6.49-.57-9.66-1.7c-3.17-1.13-5.98-2.78-8.43-4.94-2.45-2.16-4.43-4.99-5.93-8.5-1.5-3.5-2.25-7.41-2.25-11.74v-40.99c0-1.03-.46-2.04-1.38-3.04-.92-.99-1.99-1.6-3.22-1.8h14.51c-1.23.21-2.3.81-3.22,1.8-.92,1-1.38,2.01-1.38,3.04h0ZM750,515.29l-.41,9.82h-44.35c1.23-.21,2.3-.79,3.22-1.76.92-.97,1.38-2,1.38-3.1v-12.3c-3.61-.62-6.95-1.93-10.01-3.93-3.88-2.62-6.91-6.1-9.09-10.44-2.18-4.34-3.24-8.93-3.17-13.75.07-5.31,1.6-10.23,4.6-14.78,3.13-4.82,6.78-8.08,10.93-9.77s9.37-2.53,15.64-2.53h30.86v.52l.41,9.3c-.41-1.72-1.36-3.62-2.86-5.69-1.5-2.07-3.13-3.1-4.9-3.1h-23.5c-6.06,0-11.07.77-15.02,2.33-3.95,1.55-7.53,4.74-10.73,9.56-2.79,4.34-4.26,9.1-4.39,14.27-.07,4.62.95,8.99,3.07,13.13,2.18,4.2,5.11,7.55,8.79,10.03,2.86,1.93,5.99,3.17,9.4,3.72v-42.8c0-1.1-.46-2.14-1.38-3.1-.92-.97-1.99-1.59-3.22-1.86h9.91v48.18c5.52-.28,10.08-2.17,13.69-5.69,2.66-2.69,4.26-5.77,4.8-9.25.54-3.48-.09-6.89-1.89-10.23-1.8-3.34-4.58-6.05-8.33-8.12l7.46-.72c3.61,4,5.3,8.86,5.06,14.58-.24,5.72-2.37,10.54-6.39,14.47-3.82,3.79-8.62,5.79-14.41,6v15.82h27.08c1.77,0,3.41-1.03,4.9-3.1,1.5-2.07,2.45-3.96,2.86-5.69h0ZM563.16,458.38v65.71h27.08c1.77,0,3.42-1.02,4.96-3.07,1.53-2.04,2.5-3.92,2.91-5.62l-.51,9.71h-44.35c1.23-.2,2.3-.8,3.22-1.79.92-.99,1.38-2.03,1.38-3.12v-61.82c0-1.02-.46-2.03-1.38-3.01-.92-.99-1.99-1.58-3.22-1.79h14.51c-1.16.21-2.21.8-3.17,1.79-.95.99-1.43,1.99-1.43,3.01h0ZM612.72,458.38v61.82c0,1.09.46,2.13,1.38,3.12.92.99,1.99,1.58,3.22,1.79h-14.51c1.23-.2,2.3-.8,3.22-1.79.92-.99,1.38-2.03,1.38-3.12v-61.82c0-1.02-.46-2.03-1.38-3.01-.92-.99-1.99-1.58-3.22-1.79h14.51c-1.16.21-2.21.8-3.17,1.79-.95.99-1.43,1.99-1.43,3.01h0ZM629.11,453.71h-10.1c1.79.48,3.15,1.3,4.08,2.46.93,1.16,1.42,3.1,1.48,5.83v54.84c-.06,2.73-.56,4.69-1.48,5.88-.93,1.19-2.29,2-4.08,2.41h11.86c-1.79-.41-3.15-1.21-4.08-2.41-.93-1.19-1.42-3.15-1.48-5.88v-55.66l25.67,64.77,27.71-70.19v61.08c0,2.8-.46,4.77-1.39,5.93-.93,1.16-2.29,1.94-4.08,2.35h17.23c-1.79-.41-3.15-1.19-4.08-2.35-.93-1.16-1.42-3.14-1.48-5.93v-54.84c.06-2.73.56-4.67,1.48-5.83.93-1.16,2.29-1.98,4.08-2.46h-11.77l-24.74,62.72-24.83-62.72Z"/>
    </g>
  </g>
</svg>